<svg width="2000" height="256" viewBox="0 0 2000 256" fill="none" xmlns="http://www.w3.org/2000/svg">
<path d="M185.684 255.138C218.823 255.138 250.662 242.242 274.461 219.18C298.259 196.118 312.149 164.699 313.19 131.576C314.231 98.4529 302.341 66.2246 280.038 41.7135C257.735 17.2024 226.768 2.33258 193.694 0.251728C160.62 -1.82912 128.034 9.04236 102.834 30.5648C77.6348 52.0872 61.7997 82.5713 58.6809 115.564C55.5622 148.556 65.4048 181.468 86.1251 207.331C106.845 233.194 136.817 249.979 169.695 254.132L172.509 231.858C145.417 228.435 120.721 214.604 103.647 193.293C86.5736 171.982 78.4633 144.863 81.0331 117.677C83.6029 90.4908 96.6511 65.3718 117.416 47.6373C138.18 29.9027 165.031 20.9446 192.284 22.6592C219.537 24.3738 245.054 36.6266 263.432 56.8238C281.81 77.021 291.607 103.577 290.749 130.871C289.892 158.165 278.446 184.053 258.836 203.057C239.226 222.06 212.991 232.686 185.684 232.686V255.138Z" fill="#4C68F5"/>
<path d="M186.393 51.0277C234.813 51.0277 281.334 58.7653 316.106 72.6027C350.878 86.4401 371.172 105.291 372.693 125.165C374.214 145.039 356.842 164.376 324.254 179.082C291.667 193.789 246.421 202.711 198.096 203.96C149.771 205.208 102.16 198.685 65.3403 185.772C28.521 172.858 5.38402 154.568 0.827246 134.772C-3.72953 114.977 10.6516 95.23 40.9262 79.7121C71.2008 64.1943 114.993 54.1233 163.031 51.6312L167.143 64.9961C127.559 67.0496 91.4742 75.348 66.5278 88.1348C41.5815 100.922 29.7314 117.193 33.4862 133.505C37.241 149.816 56.3059 164.888 86.6452 175.528C116.984 186.169 156.217 191.544 196.037 190.515C235.857 189.486 273.139 182.135 299.991 170.016C326.844 157.898 341.158 141.964 339.905 125.588C338.652 109.212 321.929 93.6787 293.277 82.2766C264.624 70.8746 226.291 64.4987 186.393 64.4987V51.0277Z" fill="#4C68F5"/>
<path d="M116.78 134.181V114.021H124.746C124.942 114.021 125.176 114.031 125.446 114.049C125.717 114.059 125.978 114.087 126.23 114.133C127.322 114.301 128.237 114.675 128.974 115.253C129.721 115.832 130.281 116.565 130.654 117.451C131.028 118.329 131.214 119.304 131.214 120.377C131.214 121.936 130.808 123.289 129.996 124.437C129.184 125.576 127.994 126.29 126.426 126.579L125.474 126.733H119.272V134.181H116.78ZM128.778 134.181L124.802 125.977L127.266 125.221L131.634 134.181H128.778ZM119.272 124.367H124.662C124.84 124.367 125.04 124.358 125.264 124.339C125.498 124.321 125.717 124.288 125.922 124.241C126.566 124.092 127.089 123.821 127.49 123.429C127.901 123.028 128.2 122.561 128.386 122.029C128.573 121.488 128.666 120.937 128.666 120.377C128.666 119.817 128.573 119.271 128.386 118.739C128.2 118.198 127.901 117.727 127.49 117.325C127.089 116.924 126.566 116.653 125.922 116.513C125.717 116.457 125.498 116.425 125.264 116.415C125.04 116.397 124.84 116.387 124.662 116.387H119.272V124.367ZM141.27 134.601C139.786 134.601 138.489 134.275 137.378 133.621C136.277 132.959 135.418 132.039 134.802 130.863C134.186 129.678 133.878 128.297 133.878 126.719C133.878 125.067 134.181 123.639 134.788 122.435C135.395 121.222 136.239 120.289 137.322 119.635C138.414 118.973 139.693 118.641 141.158 118.641C142.679 118.641 143.972 118.991 145.036 119.691C146.109 120.391 146.912 121.39 147.444 122.687C147.985 123.985 148.219 125.529 148.144 127.321H145.624V126.425C145.596 124.568 145.218 123.182 144.49 122.267C143.762 121.343 142.679 120.881 141.242 120.881C139.702 120.881 138.531 121.376 137.728 122.365C136.925 123.355 136.524 124.773 136.524 126.621C136.524 128.404 136.925 129.785 137.728 130.765C138.531 131.745 139.674 132.235 141.158 132.235C142.157 132.235 143.025 132.007 143.762 131.549C144.499 131.092 145.078 130.434 145.498 129.575L147.892 130.401C147.304 131.736 146.417 132.772 145.232 133.509C144.056 134.237 142.735 134.601 141.27 134.601ZM135.684 127.321V125.319H146.856V127.321H135.684ZM157.631 134.601C156.1 134.601 154.798 134.261 153.725 133.579C152.661 132.889 151.849 131.941 151.289 130.737C150.729 129.533 150.439 128.161 150.421 126.621C150.439 125.044 150.733 123.658 151.303 122.463C151.881 121.259 152.707 120.321 153.781 119.649C154.854 118.977 156.147 118.641 157.659 118.641C159.255 118.641 160.627 119.033 161.775 119.817C162.932 120.601 163.707 121.675 164.099 123.037L161.635 123.779C161.317 122.902 160.799 122.221 160.081 121.735C159.371 121.25 158.555 121.007 157.631 121.007C156.595 121.007 155.741 121.25 155.069 121.735C154.397 122.211 153.897 122.874 153.571 123.723C153.244 124.563 153.076 125.529 153.067 126.621C153.085 128.301 153.473 129.659 154.229 130.695C154.994 131.722 156.128 132.235 157.631 132.235C158.62 132.235 159.441 132.011 160.095 131.563C160.748 131.106 161.243 130.448 161.579 129.589L164.099 130.247C163.576 131.657 162.759 132.735 161.649 133.481C160.538 134.228 159.199 134.601 157.631 134.601ZM173.098 134.601C171.614 134.601 170.317 134.275 169.206 133.621C168.105 132.959 167.246 132.039 166.63 130.863C166.014 129.678 165.706 128.297 165.706 126.719C165.706 125.067 166.009 123.639 166.616 122.435C167.223 121.222 168.067 120.289 169.15 119.635C170.242 118.973 171.521 118.641 172.986 118.641C174.507 118.641 175.8 118.991 176.864 119.691C177.937 120.391 178.74 121.39 179.272 122.687C179.813 123.985 180.047 125.529 179.972 127.321H177.452V126.425C177.424 124.568 177.046 123.182 176.318 122.267C175.59 121.343 174.507 120.881 173.07 120.881C171.53 120.881 170.359 121.376 169.556 122.365C168.753 123.355 168.352 124.773 168.352 126.621C168.352 128.404 168.753 129.785 169.556 130.765C170.359 131.745 171.502 132.235 172.986 132.235C173.985 132.235 174.853 132.007 175.59 131.549C176.327 131.092 176.906 130.434 177.326 129.575L179.72 130.401C179.132 131.736 178.245 132.772 177.06 133.509C175.884 134.237 174.563 134.601 173.098 134.601ZM167.512 127.321V125.319H178.684V127.321H167.512ZM183.369 116.387V113.811H185.861V116.387H183.369ZM183.369 134.181V119.061H185.861V134.181H183.369ZM194.15 134.181L188.662 119.061H191.182L195.424 131.003L199.652 119.061H202.186L196.698 134.181H194.15ZM208.168 134.601C207.039 134.601 206.092 134.396 205.326 133.985C204.57 133.565 203.996 133.015 203.604 132.333C203.222 131.652 203.03 130.905 203.03 130.093C203.03 129.3 203.18 128.614 203.478 128.035C203.786 127.447 204.216 126.962 204.766 126.579C205.317 126.187 205.975 125.879 206.74 125.655C207.459 125.459 208.262 125.291 209.148 125.151C210.044 125.002 210.95 124.867 211.864 124.745C212.779 124.624 213.633 124.507 214.426 124.395L213.53 124.913C213.558 123.569 213.288 122.575 212.718 121.931C212.158 121.287 211.188 120.965 209.806 120.965C208.892 120.965 208.089 121.175 207.398 121.595C206.717 122.006 206.236 122.678 205.956 123.611L203.59 122.897C203.954 121.572 204.659 120.531 205.704 119.775C206.75 119.019 208.126 118.641 209.834 118.641C211.206 118.641 212.382 118.889 213.362 119.383C214.352 119.869 215.061 120.606 215.49 121.595C215.705 122.062 215.84 122.571 215.896 123.121C215.952 123.663 215.98 124.232 215.98 124.829V134.181H213.768V130.555L214.286 130.891C213.717 132.114 212.919 133.038 211.892 133.663C210.875 134.289 209.634 134.601 208.168 134.601ZM208.546 132.515C209.442 132.515 210.217 132.357 210.87 132.039C211.533 131.713 212.065 131.288 212.466 130.765C212.868 130.233 213.129 129.655 213.25 129.029C213.39 128.563 213.465 128.045 213.474 127.475C213.493 126.897 213.502 126.453 213.502 126.145L214.37 126.523C213.558 126.635 212.76 126.743 211.976 126.845C211.192 126.948 210.45 127.06 209.75 127.181C209.05 127.293 208.42 127.429 207.86 127.587C207.45 127.718 207.062 127.886 206.698 128.091C206.344 128.297 206.054 128.563 205.83 128.889C205.616 129.207 205.508 129.603 205.508 130.079C205.508 130.49 205.611 130.882 205.816 131.255C206.031 131.629 206.358 131.932 206.796 132.165C207.244 132.399 207.828 132.515 208.546 132.515ZM226.564 134.601C225.146 134.601 223.951 134.251 222.98 133.551C222.01 132.842 221.272 131.885 220.768 130.681C220.274 129.468 220.026 128.11 220.026 126.607C220.026 125.086 220.274 123.723 220.768 122.519C221.272 121.315 222.01 120.368 222.98 119.677C223.96 118.987 225.16 118.641 226.578 118.641C227.978 118.641 229.182 118.991 230.19 119.691C231.208 120.382 231.987 121.329 232.528 122.533C233.07 123.737 233.34 125.095 233.34 126.607C233.34 128.119 233.07 129.477 232.528 130.681C231.987 131.885 231.208 132.842 230.19 133.551C229.182 134.251 227.974 134.601 226.564 134.601ZM219.606 134.181V114.021H222.112V123.051H221.832V134.181H219.606ZM226.256 132.319C227.255 132.319 228.081 132.067 228.734 131.563C229.388 131.059 229.878 130.378 230.204 129.519C230.531 128.651 230.694 127.681 230.694 126.607C230.694 125.543 230.531 124.582 230.204 123.723C229.887 122.865 229.392 122.183 228.72 121.679C228.058 121.175 227.213 120.923 226.186 120.923C225.206 120.923 224.394 121.166 223.75 121.651C223.106 122.127 222.626 122.795 222.308 123.653C221.991 124.503 221.832 125.487 221.832 126.607C221.832 127.709 221.986 128.693 222.294 129.561C222.612 130.42 223.097 131.097 223.75 131.591C224.404 132.077 225.239 132.319 226.256 132.319ZM236.689 134.181V113.601H239.181V134.181H236.689ZM249.934 134.601C248.45 134.601 247.153 134.275 246.042 133.621C244.941 132.959 244.082 132.039 243.466 130.863C242.85 129.678 242.542 128.297 242.542 126.719C242.542 125.067 242.845 123.639 243.452 122.435C244.059 121.222 244.903 120.289 245.986 119.635C247.078 118.973 248.357 118.641 249.822 118.641C251.343 118.641 252.636 118.991 253.7 119.691C254.773 120.391 255.576 121.39 256.108 122.687C256.649 123.985 256.883 125.529 256.808 127.321H254.288V126.425C254.26 124.568 253.882 123.182 253.154 122.267C252.426 121.343 251.343 120.881 249.906 120.881C248.366 120.881 247.195 121.376 246.392 122.365C245.589 123.355 245.188 124.773 245.188 126.621C245.188 128.404 245.589 129.785 246.392 130.765C247.195 131.745 248.338 132.235 249.822 132.235C250.821 132.235 251.689 132.007 252.426 131.549C253.163 131.092 253.742 130.434 254.162 129.575L256.556 130.401C255.968 131.736 255.081 132.772 253.896 133.509C252.72 134.237 251.399 134.601 249.934 134.601ZM244.348 127.321V125.319H255.52V127.321H244.348Z" fill="black"/>
<path d="M511.694 255.138C544.833 255.138 576.672 242.242 600.471 219.18C624.269 196.118 638.159 164.699 639.2 131.576C640.241 98.4529 628.351 66.2246 606.048 41.7135C583.745 17.2024 552.778 2.33258 519.704 0.251728C486.63 -1.82912 454.044 9.04236 428.844 30.5648C403.645 52.0872 387.81 82.5713 384.691 115.564C381.572 148.556 391.415 181.468 412.135 207.331C432.855 233.194 462.827 249.979 495.705 254.132L498.519 231.858C471.427 228.435 446.731 214.604 429.657 193.293C412.584 171.982 404.473 144.863 407.043 117.677C409.613 90.4908 422.661 65.3718 443.426 47.6373C464.19 29.9027 491.041 20.9446 518.294 22.6592C545.547 24.3738 571.064 36.6266 589.442 56.8238C607.82 77.021 617.617 103.577 616.759 130.871C615.902 158.165 604.456 184.053 584.846 203.057C565.236 222.06 539.001 232.686 511.694 232.686V255.138Z" fill="#4C68F5"/>
<path d="M512.403 51.0277C560.823 51.0277 607.343 58.7653 642.116 72.6027C676.888 86.4401 697.182 105.291 698.703 125.165C700.224 145.039 682.852 164.376 650.264 179.082C617.677 193.789 572.431 202.711 524.106 203.96C475.781 205.208 428.17 198.685 391.35 185.772C354.531 172.858 331.394 154.568 326.837 134.772C322.28 114.977 336.661 95.23 366.936 79.7121C397.211 64.1943 441.003 54.1233 489.041 51.6312L493.153 64.9961C453.569 67.0496 417.484 75.348 392.538 88.1348C367.591 100.922 355.741 117.193 359.496 133.505C363.251 149.816 382.316 164.888 412.655 175.528C442.994 186.169 482.226 191.544 522.046 190.515C561.866 189.486 599.149 182.135 626.001 170.016C652.853 157.898 667.168 141.964 665.915 125.588C664.662 109.212 647.939 93.6787 619.286 82.2766C590.634 70.8746 552.301 64.4987 512.403 64.4987V51.0277Z" fill="#4C68F5"/>
<path d="M456.583 134.181V114.021H464.549C464.745 114.021 464.978 114.031 465.249 114.049C465.52 114.059 465.781 114.087 466.033 114.133C467.125 114.301 468.04 114.675 468.777 115.253C469.524 115.832 470.084 116.565 470.457 117.451C470.83 118.329 471.017 119.304 471.017 120.377C471.017 121.441 470.826 122.417 470.443 123.303C470.07 124.181 469.51 124.913 468.763 125.501C468.026 126.08 467.116 126.453 466.033 126.621C465.781 126.659 465.52 126.687 465.249 126.705C464.978 126.724 464.745 126.733 464.549 126.733H459.075V134.181H456.583ZM459.075 124.367H464.465C464.642 124.367 464.843 124.358 465.067 124.339C465.3 124.321 465.52 124.288 465.725 124.241C466.369 124.092 466.892 123.821 467.293 123.429C467.704 123.028 468.002 122.561 468.189 122.029C468.376 121.488 468.469 120.937 468.469 120.377C468.469 119.817 468.376 119.271 468.189 118.739C468.002 118.198 467.704 117.727 467.293 117.325C466.892 116.924 466.369 116.653 465.725 116.513C465.52 116.457 465.3 116.425 465.067 116.415C464.843 116.397 464.642 116.387 464.465 116.387H459.075V124.367ZM477.533 134.601C476.404 134.601 475.457 134.396 474.691 133.985C473.935 133.565 473.361 133.015 472.969 132.333C472.587 131.652 472.395 130.905 472.395 130.093C472.395 129.3 472.545 128.614 472.843 128.035C473.151 127.447 473.581 126.962 474.131 126.579C474.682 126.187 475.34 125.879 476.105 125.655C476.824 125.459 477.627 125.291 478.513 125.151C479.409 125.002 480.315 124.867 481.229 124.745C482.144 124.624 482.998 124.507 483.791 124.395L482.895 124.913C482.923 123.569 482.653 122.575 482.083 121.931C481.523 121.287 480.553 120.965 479.171 120.965C478.257 120.965 477.454 121.175 476.763 121.595C476.082 122.006 475.601 122.678 475.321 123.611L472.955 122.897C473.319 121.572 474.024 120.531 475.069 119.775C476.115 119.019 477.491 118.641 479.199 118.641C480.571 118.641 481.747 118.889 482.727 119.383C483.717 119.869 484.426 120.606 484.855 121.595C485.07 122.062 485.205 122.571 485.261 123.121C485.317 123.663 485.345 124.232 485.345 124.829V134.181H483.133V130.555L483.651 130.891C483.082 132.114 482.284 133.038 481.257 133.663C480.24 134.289 478.999 134.601 477.533 134.601ZM477.911 132.515C478.807 132.515 479.582 132.357 480.235 132.039C480.898 131.713 481.43 131.288 481.831 130.765C482.233 130.233 482.494 129.655 482.615 129.029C482.755 128.563 482.83 128.045 482.839 127.475C482.858 126.897 482.867 126.453 482.867 126.145L483.735 126.523C482.923 126.635 482.125 126.743 481.341 126.845C480.557 126.948 479.815 127.06 479.115 127.181C478.415 127.293 477.785 127.429 477.225 127.587C476.815 127.718 476.427 127.886 476.063 128.091C475.709 128.297 475.419 128.563 475.195 128.889C474.981 129.207 474.873 129.603 474.873 130.079C474.873 130.49 474.976 130.882 475.181 131.255C475.396 131.629 475.723 131.932 476.161 132.165C476.609 132.399 477.193 132.515 477.911 132.515ZM490.238 140.901L493.164 132.949L493.206 135.301L486.598 119.061H489.216L494.396 132.123H493.5L498.358 119.061H500.892L492.66 140.901H490.238ZM506.955 134.601C505.826 134.601 504.879 134.396 504.113 133.985C503.357 133.565 502.783 133.015 502.391 132.333C502.009 131.652 501.817 130.905 501.817 130.093C501.817 129.3 501.967 128.614 502.265 128.035C502.573 127.447 503.003 126.962 503.553 126.579C504.104 126.187 504.762 125.879 505.527 125.655C506.246 125.459 507.049 125.291 507.935 125.151C508.831 125.002 509.737 124.867 510.651 124.745C511.566 124.624 512.42 124.507 513.213 124.395L512.317 124.913C512.345 123.569 512.075 122.575 511.505 121.931C510.945 121.287 509.975 120.965 508.593 120.965C507.679 120.965 506.876 121.175 506.185 121.595C505.504 122.006 505.023 122.678 504.743 123.611L502.377 122.897C502.741 121.572 503.446 120.531 504.491 119.775C505.537 119.019 506.913 118.641 508.621 118.641C509.993 118.641 511.169 118.889 512.149 119.383C513.139 119.869 513.848 120.606 514.277 121.595C514.492 122.062 514.627 122.571 514.683 123.121C514.739 123.663 514.767 124.232 514.767 124.829V134.181H512.555V130.555L513.073 130.891C512.504 132.114 511.706 133.038 510.679 133.663C509.662 134.289 508.421 134.601 506.955 134.601ZM507.333 132.515C508.229 132.515 509.004 132.357 509.657 132.039C510.32 131.713 510.852 131.288 511.253 130.765C511.655 130.233 511.916 129.655 512.037 129.029C512.177 128.563 512.252 128.045 512.261 127.475C512.28 126.897 512.289 126.453 512.289 126.145L513.157 126.523C512.345 126.635 511.547 126.743 510.763 126.845C509.979 126.948 509.237 127.06 508.537 127.181C507.837 127.293 507.207 127.429 506.647 127.587C506.237 127.718 505.849 127.886 505.485 128.091C505.131 128.297 504.841 128.563 504.617 128.889C504.403 129.207 504.295 129.603 504.295 130.079C504.295 130.49 504.398 130.882 504.603 131.255C504.818 131.629 505.145 131.932 505.583 132.165C506.031 132.399 506.615 132.515 507.333 132.515ZM525.351 134.601C523.933 134.601 522.738 134.251 521.767 133.551C520.797 132.842 520.059 131.885 519.555 130.681C519.061 129.468 518.813 128.11 518.813 126.607C518.813 125.086 519.061 123.723 519.555 122.519C520.059 121.315 520.797 120.368 521.767 119.677C522.747 118.987 523.947 118.641 525.365 118.641C526.765 118.641 527.969 118.991 528.977 119.691C529.995 120.382 530.774 121.329 531.315 122.533C531.857 123.737 532.127 125.095 532.127 126.607C532.127 128.119 531.857 129.477 531.315 130.681C530.774 131.885 529.995 132.842 528.977 133.551C527.969 134.251 526.761 134.601 525.351 134.601ZM518.393 134.181V114.021H520.899V123.051H520.619V134.181H518.393ZM525.043 132.319C526.042 132.319 526.868 132.067 527.521 131.563C528.175 131.059 528.665 130.378 528.991 129.519C529.318 128.651 529.481 127.681 529.481 126.607C529.481 125.543 529.318 124.582 528.991 123.723C528.674 122.865 528.179 122.183 527.507 121.679C526.845 121.175 526 120.923 524.973 120.923C523.993 120.923 523.181 121.166 522.537 121.651C521.893 122.127 521.413 122.795 521.095 123.653C520.778 124.503 520.619 125.487 520.619 126.607C520.619 127.709 520.773 128.693 521.081 129.561C521.399 130.42 521.884 131.097 522.537 131.591C523.191 132.077 524.026 132.319 525.043 132.319ZM535.476 134.181V113.601H537.968V134.181H535.476ZM548.721 134.601C547.237 134.601 545.94 134.275 544.829 133.621C543.728 132.959 542.869 132.039 542.253 130.863C541.637 129.678 541.329 128.297 541.329 126.719C541.329 125.067 541.632 123.639 542.239 122.435C542.846 121.222 543.69 120.289 544.773 119.635C545.865 118.973 547.144 118.641 548.609 118.641C550.13 118.641 551.423 118.991 552.487 119.691C553.56 120.391 554.363 121.39 554.895 122.687C555.436 123.985 555.67 125.529 555.595 127.321H553.075V126.425C553.047 124.568 552.669 123.182 551.941 122.267C551.213 121.343 550.13 120.881 548.693 120.881C547.153 120.881 545.982 121.376 545.179 122.365C544.376 123.355 543.975 124.773 543.975 126.621C543.975 128.404 544.376 129.785 545.179 130.765C545.982 131.745 547.125 132.235 548.609 132.235C549.608 132.235 550.476 132.007 551.213 131.549C551.95 131.092 552.529 130.434 552.949 129.575L555.343 130.401C554.755 131.736 553.868 132.772 552.683 133.509C551.507 134.237 550.186 134.601 548.721 134.601ZM543.135 127.321V125.319H554.307V127.321H543.135ZM564.424 134.587C562.623 134.587 561.143 134.195 559.986 133.411C558.838 132.618 558.133 131.512 557.872 130.093L560.42 129.687C560.625 130.509 561.097 131.162 561.834 131.647C562.571 132.123 563.486 132.361 564.578 132.361C565.614 132.361 566.426 132.147 567.014 131.717C567.602 131.288 567.896 130.705 567.896 129.967C567.896 129.538 567.798 129.193 567.602 128.931C567.406 128.661 567 128.409 566.384 128.175C565.777 127.942 564.858 127.662 563.626 127.335C562.291 126.981 561.241 126.612 560.476 126.229C559.711 125.847 559.165 125.403 558.838 124.899C558.511 124.395 558.348 123.784 558.348 123.065C558.348 122.179 558.591 121.404 559.076 120.741C559.561 120.069 560.238 119.551 561.106 119.187C561.983 118.823 563.001 118.641 564.158 118.641C565.306 118.641 566.333 118.823 567.238 119.187C568.143 119.551 568.871 120.069 569.422 120.741C569.982 121.404 570.313 122.179 570.416 123.065L567.868 123.527C567.747 122.715 567.355 122.076 566.692 121.609C566.039 121.143 565.194 120.895 564.158 120.867C563.178 120.83 562.38 121.003 561.764 121.385C561.157 121.768 560.854 122.286 560.854 122.939C560.854 123.303 560.966 123.616 561.19 123.877C561.423 124.139 561.848 124.386 562.464 124.619C563.089 124.853 563.995 125.119 565.18 125.417C566.515 125.753 567.565 126.122 568.33 126.523C569.105 126.915 569.655 127.382 569.982 127.923C570.309 128.455 570.472 129.113 570.472 129.897C570.472 131.353 569.935 132.501 568.862 133.341C567.789 134.172 566.309 134.587 564.424 134.587Z" fill="black"/>
<path d="M834.869 255.138C868.008 255.138 899.847 242.242 923.646 219.18C947.444 196.118 961.334 164.699 962.375 131.576C963.416 98.4529 951.526 66.2246 929.223 41.7135C906.92 17.2024 875.953 2.33258 842.879 0.251728C809.805 -1.82912 777.219 9.04236 752.019 30.5648C726.82 52.0872 710.985 82.5713 707.866 115.564C704.747 148.556 714.59 181.468 735.31 207.331C756.03 233.194 786.002 249.979 818.88 254.132L821.694 231.858C794.602 228.435 769.906 214.604 752.832 193.293C735.759 171.982 727.648 144.863 730.218 117.677C732.788 90.4908 745.836 65.3718 766.601 47.6373C787.365 29.9027 814.216 20.9446 841.469 22.6592C868.722 24.3738 894.239 36.6266 912.617 56.8238C930.995 77.021 940.792 103.577 939.934 130.871C939.077 158.165 927.631 184.053 908.021 203.057C888.411 222.06 862.176 232.686 834.869 232.686V255.138Z" fill="#4C68F5"/>
<path d="M835.578 51.0277C883.998 51.0277 930.518 58.7653 965.291 72.6027C1000.06 86.4401 1020.36 105.291 1021.88 125.165C1023.4 145.039 1006.03 164.376 973.439 179.082C940.852 193.789 895.606 202.711 847.281 203.96C798.956 205.208 751.345 198.685 714.525 185.772C677.706 172.858 654.569 154.568 650.012 134.772C645.455 114.977 659.836 95.23 690.111 79.7121C720.386 64.1943 764.178 54.1233 812.216 51.6312L816.328 64.9961C776.744 67.0496 740.659 75.348 715.713 88.1348C690.766 100.922 678.916 117.193 682.671 133.505C686.426 149.816 705.491 164.888 735.83 175.528C766.169 186.169 805.401 191.544 845.221 190.515C885.041 189.486 922.324 182.135 949.176 170.016C976.028 157.898 990.343 141.964 989.09 125.588C987.837 109.212 971.114 93.6787 942.462 82.2766C913.809 70.8746 875.476 64.4987 835.578 64.4987V51.0277Z" fill="#4C68F5"/>
<path d="M785.76 134.181V114.021H793.614C794.818 114.021 795.845 114.269 796.694 114.763C797.553 115.258 798.206 115.911 798.654 116.723C799.111 117.526 799.34 118.394 799.34 119.327C799.34 120.419 799.06 121.376 798.5 122.197C797.94 123.019 797.184 123.583 796.232 123.891L796.204 123.205C797.501 123.551 798.509 124.185 799.228 125.109C799.947 126.033 800.306 127.135 800.306 128.413C800.306 129.589 800.063 130.607 799.578 131.465C799.102 132.324 798.411 132.991 797.506 133.467C796.61 133.943 795.546 134.181 794.314 134.181H785.76ZM788.28 131.801H793.838C794.585 131.801 795.252 131.666 795.84 131.395C796.428 131.115 796.89 130.723 797.226 130.219C797.571 129.715 797.744 129.109 797.744 128.399C797.744 127.718 797.59 127.107 797.282 126.565C796.983 126.024 796.559 125.595 796.008 125.277C795.467 124.951 794.837 124.787 794.118 124.787H788.28V131.801ZM788.28 122.435H793.586C794.183 122.435 794.72 122.309 795.196 122.057C795.681 121.796 796.064 121.432 796.344 120.965C796.633 120.499 796.778 119.953 796.778 119.327C796.778 118.459 796.484 117.75 795.896 117.199C795.308 116.649 794.538 116.373 793.586 116.373H788.28V122.435ZM807.394 134.601C806.265 134.601 805.317 134.396 804.552 133.985C803.796 133.565 803.222 133.015 802.83 132.333C802.447 131.652 802.256 130.905 802.256 130.093C802.256 129.3 802.405 128.614 802.704 128.035C803.012 127.447 803.441 126.962 803.992 126.579C804.543 126.187 805.201 125.879 805.966 125.655C806.685 125.459 807.487 125.291 808.374 125.151C809.27 125.002 810.175 124.867 811.09 124.745C812.005 124.624 812.859 124.507 813.652 124.395L812.756 124.913C812.784 123.569 812.513 122.575 811.944 121.931C811.384 121.287 810.413 120.965 809.032 120.965C808.117 120.965 807.315 121.175 806.624 121.595C805.943 122.006 805.462 122.678 805.182 123.611L802.816 122.897C803.18 121.572 803.885 120.531 804.93 119.775C805.975 119.019 807.352 118.641 809.06 118.641C810.432 118.641 811.608 118.889 812.588 119.383C813.577 119.869 814.287 120.606 814.716 121.595C814.931 122.062 815.066 122.571 815.122 123.121C815.178 123.663 815.206 124.232 815.206 124.829V134.181H812.994V130.555L813.512 130.891C812.943 132.114 812.145 133.038 811.118 133.663C810.101 134.289 808.859 134.601 807.394 134.601ZM807.772 132.515C808.668 132.515 809.443 132.357 810.096 132.039C810.759 131.713 811.291 131.288 811.692 130.765C812.093 130.233 812.355 129.655 812.476 129.029C812.616 128.563 812.691 128.045 812.7 127.475C812.719 126.897 812.728 126.453 812.728 126.145L813.596 126.523C812.784 126.635 811.986 126.743 811.202 126.845C810.418 126.948 809.676 127.06 808.976 127.181C808.276 127.293 807.646 127.429 807.086 127.587C806.675 127.718 806.288 127.886 805.924 128.091C805.569 128.297 805.28 128.563 805.056 128.889C804.841 129.207 804.734 129.603 804.734 130.079C804.734 130.49 804.837 130.882 805.042 131.255C805.257 131.629 805.583 131.932 806.022 132.165C806.47 132.399 807.053 132.515 807.772 132.515ZM829.612 134.181V126.607C829.612 125.889 829.547 125.198 829.416 124.535C829.295 123.873 829.075 123.28 828.758 122.757C828.45 122.225 828.03 121.805 827.498 121.497C826.975 121.189 826.313 121.035 825.51 121.035C824.885 121.035 824.315 121.143 823.802 121.357C823.298 121.563 822.864 121.88 822.5 122.309C822.136 122.739 821.851 123.28 821.646 123.933C821.45 124.577 821.352 125.338 821.352 126.215L819.714 125.711C819.714 124.246 819.975 122.991 820.498 121.945C821.03 120.891 821.772 120.083 822.724 119.523C823.685 118.954 824.815 118.669 826.112 118.669C827.092 118.669 827.927 118.823 828.618 119.131C829.309 119.439 829.883 119.85 830.34 120.363C830.797 120.867 831.157 121.437 831.418 122.071C831.679 122.697 831.861 123.336 831.964 123.989C832.076 124.633 832.132 125.245 832.132 125.823V134.181H829.612ZM818.832 134.181V119.061H821.072V123.107H821.352V134.181H818.832ZM835.758 134.181L835.772 114.021H838.292V126.341L844.634 119.061H847.868L841.19 126.621L848.652 134.181H845.166L838.292 126.901V134.181H835.758ZM850.325 116.387V113.811H852.817V116.387H850.325ZM850.325 134.181V119.061H852.817V134.181H850.325ZM867.784 134.181V126.607C867.784 125.889 867.718 125.198 867.588 124.535C867.466 123.873 867.247 123.28 866.93 122.757C866.622 122.225 866.202 121.805 865.67 121.497C865.147 121.189 864.484 121.035 863.682 121.035C863.056 121.035 862.487 121.143 861.974 121.357C861.47 121.563 861.036 121.88 860.672 122.309C860.308 122.739 860.023 123.28 859.818 123.933C859.622 124.577 859.524 125.338 859.524 126.215L857.886 125.711C857.886 124.246 858.147 122.991 858.67 121.945C859.202 120.891 859.944 120.083 860.896 119.523C861.857 118.954 862.986 118.669 864.284 118.669C865.264 118.669 866.099 118.823 866.79 119.131C867.48 119.439 868.054 119.85 868.512 120.363C868.969 120.867 869.328 121.437 869.59 122.071C869.851 122.697 870.033 123.336 870.136 123.989C870.248 124.633 870.304 125.245 870.304 125.823V134.181H867.784ZM857.004 134.181V119.061H859.244V123.107H859.524V134.181H857.004ZM880.062 141.321C879.268 141.321 878.494 141.2 877.738 140.957C876.982 140.715 876.286 140.346 875.652 139.851C875.026 139.366 874.504 138.75 874.084 138.003L876.366 136.799C876.739 137.537 877.266 138.073 877.948 138.409C878.638 138.745 879.348 138.913 880.076 138.913C881.037 138.913 881.835 138.736 882.47 138.381C883.104 138.036 883.571 137.518 883.87 136.827C884.178 136.137 884.327 135.278 884.318 134.251V130.121H884.612V119.061H886.824V134.279C886.824 134.69 886.81 135.087 886.782 135.469C886.763 135.852 886.716 136.23 886.642 136.603C886.446 137.677 886.058 138.559 885.48 139.249C884.901 139.949 884.154 140.467 883.24 140.803C882.325 141.149 881.266 141.321 880.062 141.321ZM879.88 134.601C878.47 134.601 877.262 134.251 876.254 133.551C875.246 132.842 874.466 131.885 873.916 130.681C873.374 129.477 873.104 128.119 873.104 126.607C873.104 125.095 873.374 123.737 873.916 122.533C874.466 121.329 875.246 120.382 876.254 119.691C877.262 118.991 878.466 118.641 879.866 118.641C881.294 118.641 882.493 118.987 883.464 119.677C884.434 120.368 885.167 121.315 885.662 122.519C886.166 123.723 886.418 125.086 886.418 126.607C886.418 128.11 886.166 129.468 885.662 130.681C885.167 131.885 884.434 132.842 883.464 133.551C882.493 134.251 881.298 134.601 879.88 134.601ZM880.188 132.319C881.205 132.319 882.04 132.077 882.694 131.591C883.347 131.097 883.828 130.42 884.136 129.561C884.453 128.693 884.612 127.709 884.612 126.607C884.612 125.487 884.453 124.503 884.136 123.653C883.828 122.795 883.352 122.127 882.708 121.651C882.064 121.166 881.247 120.923 880.258 120.923C879.231 120.923 878.382 121.175 877.71 121.679C877.047 122.183 876.552 122.865 876.226 123.723C875.908 124.582 875.75 125.543 875.75 126.607C875.75 127.681 875.913 128.651 876.24 129.519C876.566 130.378 877.056 131.059 877.71 131.563C878.372 132.067 879.198 132.319 880.188 132.319Z" fill="black"/>
<path d="M1160.88 255.138C1194.02 255.138 1225.86 242.242 1249.66 219.18C1273.45 196.118 1287.34 164.699 1288.38 131.576C1289.43 98.4529 1277.54 66.2246 1255.23 41.7135C1232.93 17.2024 1201.96 2.33258 1168.89 0.251728C1135.81 -1.82912 1103.23 9.04236 1078.03 30.5648C1052.83 52.0872 1036.99 82.5713 1033.88 115.564C1030.76 148.556 1040.6 181.468 1061.32 207.331C1082.04 233.194 1112.01 249.979 1144.89 254.132L1147.7 231.858C1120.61 228.435 1095.92 214.604 1078.84 193.293C1061.77 171.982 1053.66 144.863 1056.23 117.677C1058.8 90.4908 1071.85 65.3718 1092.61 47.6373C1113.38 29.9027 1140.23 20.9446 1167.48 22.6592C1194.73 24.3738 1220.25 36.6266 1238.63 56.8238C1257 77.021 1266.8 103.577 1265.94 130.871C1265.09 158.165 1253.64 184.053 1234.03 203.057C1214.42 222.06 1188.19 232.686 1160.88 232.686V255.138Z" fill="#4C68F5"/>
<path d="M1161.59 51.0277C1210.01 51.0277 1256.53 58.7653 1291.3 72.6027C1326.07 86.4401 1346.37 105.291 1347.89 125.165C1349.41 145.039 1332.04 164.376 1299.45 179.082C1266.86 193.789 1221.62 202.711 1173.29 203.96C1124.97 205.208 1077.35 198.685 1040.54 185.772C1003.72 172.858 980.579 154.568 976.022 134.772C971.465 114.977 985.846 95.23 1016.12 79.7121C1046.4 64.1943 1090.19 54.1233 1138.23 51.6312L1142.34 64.9961C1102.75 67.0496 1066.67 75.348 1041.72 88.1348C1016.78 100.922 1004.93 117.193 1008.68 133.505C1012.44 149.816 1031.5 164.888 1061.84 175.528C1092.18 186.169 1131.41 191.544 1171.23 190.515C1211.05 189.486 1248.33 182.135 1275.19 170.016C1302.04 157.898 1316.35 141.964 1315.1 125.588C1313.85 109.212 1297.12 93.6787 1268.47 82.2766C1239.82 70.8746 1201.49 64.4987 1161.59 64.4987V51.0277Z" fill="#4C68F5"/>
<path d="M1110.19 134.601C1108.18 134.601 1106.48 134.158 1105.08 133.271C1103.68 132.385 1102.61 131.153 1101.87 129.575C1101.14 127.998 1100.78 126.173 1100.78 124.101C1100.78 122.029 1101.14 120.205 1101.87 118.627C1102.61 117.05 1103.68 115.818 1105.08 114.931C1106.48 114.045 1108.18 113.601 1110.19 113.601C1112.52 113.601 1114.44 114.194 1115.94 115.379C1117.45 116.565 1118.5 118.161 1119.06 120.167L1116.53 120.839C1116.12 119.337 1115.39 118.151 1114.33 117.283C1113.28 116.415 1111.9 115.981 1110.19 115.981C1108.69 115.981 1107.44 116.322 1106.44 117.003C1105.44 117.685 1104.69 118.637 1104.18 119.859C1103.68 121.073 1103.42 122.487 1103.41 124.101C1103.4 125.707 1103.65 127.121 1104.15 128.343C1104.66 129.557 1105.41 130.509 1106.42 131.199C1107.43 131.881 1108.69 132.221 1110.19 132.221C1111.9 132.221 1113.28 131.787 1114.33 130.919C1115.39 130.042 1116.12 128.857 1116.53 127.363L1119.06 128.035C1118.5 130.033 1117.45 131.629 1115.94 132.823C1114.44 134.009 1112.52 134.601 1110.19 134.601ZM1128.58 134.601C1127.07 134.601 1125.78 134.261 1124.68 133.579C1123.6 132.898 1122.77 131.955 1122.18 130.751C1121.59 129.547 1121.3 128.166 1121.3 126.607C1121.3 125.021 1121.59 123.63 1122.19 122.435C1122.79 121.241 1123.63 120.312 1124.73 119.649C1125.82 118.977 1127.1 118.641 1128.58 118.641C1130.09 118.641 1131.39 118.982 1132.48 119.663C1133.57 120.335 1134.41 121.273 1134.99 122.477C1135.58 123.672 1135.87 125.049 1135.87 126.607C1135.87 128.185 1135.58 129.575 1134.99 130.779C1134.4 131.974 1133.56 132.912 1132.47 133.593C1131.38 134.265 1130.08 134.601 1128.58 134.601ZM1128.58 132.235C1130.14 132.235 1131.31 131.713 1132.08 130.667C1132.84 129.622 1133.22 128.269 1133.22 126.607C1133.22 124.899 1132.84 123.541 1132.06 122.533C1131.29 121.516 1130.12 121.007 1128.58 121.007C1127.52 121.007 1126.65 121.245 1125.97 121.721C1125.29 122.197 1124.78 122.855 1124.45 123.695C1124.11 124.535 1123.94 125.506 1123.94 126.607C1123.94 128.306 1124.33 129.669 1125.12 130.695C1125.9 131.722 1127.05 132.235 1128.58 132.235ZM1149.72 134.181V126.607C1149.72 125.889 1149.65 125.198 1149.52 124.535C1149.4 123.873 1149.18 123.28 1148.86 122.757C1148.56 122.225 1148.14 121.805 1147.6 121.497C1147.08 121.189 1146.42 121.035 1145.62 121.035C1144.99 121.035 1144.42 121.143 1143.91 121.357C1143.4 121.563 1142.97 121.88 1142.61 122.309C1142.24 122.739 1141.96 123.28 1141.75 123.933C1141.56 124.577 1141.46 125.338 1141.46 126.215L1139.82 125.711C1139.82 124.246 1140.08 122.991 1140.6 121.945C1141.14 120.891 1141.88 120.083 1142.83 119.523C1143.79 118.954 1144.92 118.669 1146.22 118.669C1147.2 118.669 1148.03 118.823 1148.72 119.131C1149.41 119.439 1149.99 119.85 1150.45 120.363C1150.9 120.867 1151.26 121.437 1151.52 122.071C1151.79 122.697 1151.97 123.336 1152.07 123.989C1152.18 124.633 1152.24 125.245 1152.24 125.823V134.181H1149.72ZM1138.94 134.181V119.061H1141.18V123.107H1141.46V134.181H1138.94ZM1164.32 134.181C1163.42 134.359 1162.54 134.429 1161.66 134.391C1160.79 134.363 1160.02 134.191 1159.34 133.873C1158.65 133.547 1158.14 133.043 1157.78 132.361C1157.48 131.764 1157.32 131.162 1157.29 130.555C1157.27 129.939 1157.26 129.244 1157.26 128.469V114.861H1159.76V128.357C1159.76 128.973 1159.76 129.501 1159.77 129.939C1159.79 130.378 1159.89 130.756 1160.06 131.073C1160.4 131.671 1160.93 132.021 1161.66 132.123C1162.4 132.226 1163.28 132.198 1164.32 132.039V134.181ZM1154.2 121.119V119.061H1164.32V121.119H1154.2ZM1171.69 134.601C1170.56 134.601 1169.61 134.396 1168.85 133.985C1168.09 133.565 1167.52 133.015 1167.12 132.333C1166.74 131.652 1166.55 130.905 1166.55 130.093C1166.55 129.3 1166.7 128.614 1167 128.035C1167.31 127.447 1167.73 126.962 1168.29 126.579C1168.84 126.187 1169.49 125.879 1170.26 125.655C1170.98 125.459 1171.78 125.291 1172.67 125.151C1173.56 125.002 1174.47 124.867 1175.38 124.745C1176.3 124.624 1177.15 124.507 1177.95 124.395L1177.05 124.913C1177.08 123.569 1176.81 122.575 1176.24 121.931C1175.68 121.287 1174.71 120.965 1173.33 120.965C1172.41 120.965 1171.61 121.175 1170.92 121.595C1170.24 122.006 1169.76 122.678 1169.48 123.611L1167.11 122.897C1167.47 121.572 1168.18 120.531 1169.22 119.775C1170.27 119.019 1171.65 118.641 1173.35 118.641C1174.73 118.641 1175.9 118.889 1176.88 119.383C1177.87 119.869 1178.58 120.606 1179.01 121.595C1179.22 122.062 1179.36 122.571 1179.42 123.121C1179.47 123.663 1179.5 124.232 1179.5 124.829V134.181H1177.29V130.555L1177.81 130.891C1177.24 132.114 1176.44 133.038 1175.41 133.663C1174.39 134.289 1173.15 134.601 1171.69 134.601ZM1172.07 132.515C1172.96 132.515 1173.74 132.357 1174.39 132.039C1175.05 131.713 1175.58 131.288 1175.99 130.765C1176.39 130.233 1176.65 129.655 1176.77 129.029C1176.91 128.563 1176.98 128.045 1176.99 127.475C1177.01 126.897 1177.02 126.453 1177.02 126.145L1177.89 126.523C1177.08 126.635 1176.28 126.743 1175.5 126.845C1174.71 126.948 1173.97 127.06 1173.27 127.181C1172.57 127.293 1171.94 127.429 1171.38 127.587C1170.97 127.718 1170.58 127.886 1170.22 128.091C1169.86 128.297 1169.57 128.563 1169.35 128.889C1169.13 129.207 1169.03 129.603 1169.03 130.079C1169.03 130.49 1169.13 130.882 1169.34 131.255C1169.55 131.629 1169.88 131.932 1170.32 132.165C1170.76 132.399 1171.35 132.515 1172.07 132.515ZM1189.51 134.601C1187.98 134.601 1186.68 134.261 1185.6 133.579C1184.54 132.889 1183.73 131.941 1183.17 130.737C1182.61 129.533 1182.32 128.161 1182.3 126.621C1182.32 125.044 1182.61 123.658 1183.18 122.463C1183.76 121.259 1184.59 120.321 1185.66 119.649C1186.73 118.977 1188.03 118.641 1189.54 118.641C1191.13 118.641 1192.51 119.033 1193.65 119.817C1194.81 120.601 1195.59 121.675 1195.98 123.037L1193.51 123.779C1193.2 122.902 1192.68 122.221 1191.96 121.735C1191.25 121.25 1190.43 121.007 1189.51 121.007C1188.47 121.007 1187.62 121.25 1186.95 121.735C1186.28 122.211 1185.78 122.874 1185.45 123.723C1185.12 124.563 1184.95 125.529 1184.95 126.621C1184.96 128.301 1185.35 129.659 1186.11 130.695C1186.87 131.722 1188.01 132.235 1189.51 132.235C1190.5 132.235 1191.32 132.011 1191.97 131.563C1192.63 131.106 1193.12 130.448 1193.46 129.589L1195.98 130.247C1195.45 131.657 1194.64 132.735 1193.53 133.481C1192.42 134.228 1191.08 134.601 1189.51 134.601ZM1207.28 134.181C1206.38 134.359 1205.49 134.429 1204.62 134.391C1203.75 134.363 1202.97 134.191 1202.29 133.873C1201.61 133.547 1201.09 133.043 1200.74 132.361C1200.44 131.764 1200.28 131.162 1200.25 130.555C1200.23 129.939 1200.22 129.244 1200.22 128.469V114.861H1202.71V128.357C1202.71 128.973 1202.72 129.501 1202.73 129.939C1202.75 130.378 1202.84 130.756 1203.02 131.073C1203.36 131.671 1203.89 132.021 1204.62 132.123C1205.35 132.226 1206.24 132.198 1207.28 132.039V134.181ZM1197.15 121.119V119.061H1207.28V121.119H1197.15ZM1216.06 134.587C1214.26 134.587 1212.78 134.195 1211.62 133.411C1210.47 132.618 1209.77 131.512 1209.51 130.093L1212.05 129.687C1212.26 130.509 1212.73 131.162 1213.47 131.647C1214.21 132.123 1215.12 132.361 1216.21 132.361C1217.25 132.361 1218.06 132.147 1218.65 131.717C1219.24 131.288 1219.53 130.705 1219.53 129.967C1219.53 129.538 1219.43 129.193 1219.24 128.931C1219.04 128.661 1218.63 128.409 1218.02 128.175C1217.41 127.942 1216.49 127.662 1215.26 127.335C1213.93 126.981 1212.88 126.612 1212.11 126.229C1211.34 125.847 1210.8 125.403 1210.47 124.899C1210.15 124.395 1209.98 123.784 1209.98 123.065C1209.98 122.179 1210.22 121.404 1210.71 120.741C1211.2 120.069 1211.87 119.551 1212.74 119.187C1213.62 118.823 1214.63 118.641 1215.79 118.641C1216.94 118.641 1217.97 118.823 1218.87 119.187C1219.78 119.551 1220.51 120.069 1221.06 120.741C1221.62 121.404 1221.95 122.179 1222.05 123.065L1219.5 123.527C1219.38 122.715 1218.99 122.076 1218.33 121.609C1217.67 121.143 1216.83 120.895 1215.79 120.867C1214.81 120.83 1214.01 121.003 1213.4 121.385C1212.79 121.768 1212.49 122.286 1212.49 122.939C1212.49 123.303 1212.6 123.616 1212.82 123.877C1213.06 124.139 1213.48 124.386 1214.1 124.619C1214.72 124.853 1215.63 125.119 1216.81 125.417C1218.15 125.753 1219.2 126.122 1219.96 126.523C1220.74 126.915 1221.29 127.382 1221.62 127.923C1221.94 128.455 1222.11 129.113 1222.11 129.897C1222.11 131.353 1221.57 132.501 1220.5 133.341C1219.42 134.172 1217.94 134.587 1216.06 134.587Z" fill="black"/>
<path d="M1486.89 255.138C1520.03 255.138 1551.87 242.242 1575.67 219.18C1599.46 196.118 1613.35 164.699 1614.39 131.576C1615.44 98.4529 1603.55 66.2246 1581.24 41.7135C1558.94 17.2024 1527.97 2.33258 1494.9 0.251728C1461.82 -1.82912 1429.24 9.04236 1404.04 30.5648C1378.84 52.0872 1363 82.5713 1359.89 115.564C1356.77 148.556 1366.61 181.468 1387.33 207.331C1408.05 233.194 1438.02 249.979 1470.9 254.132L1473.71 231.858C1446.62 228.435 1421.93 214.604 1404.85 193.293C1387.78 171.982 1379.67 144.863 1382.24 117.677C1384.81 90.4908 1397.86 65.3718 1418.62 47.6373C1439.39 29.9027 1466.24 20.9446 1493.49 22.6592C1520.74 24.3738 1546.26 36.6266 1564.64 56.8238C1583.01 77.021 1592.81 103.577 1591.95 130.871C1591.1 158.165 1579.65 184.053 1560.04 203.057C1540.43 222.06 1514.2 232.686 1486.89 232.686V255.138Z" fill="#4C68F5"/>
<path d="M1487.6 51.0277C1536.02 51.0277 1582.54 58.7653 1617.31 72.6027C1652.08 86.4401 1672.38 105.291 1673.9 125.165C1675.42 145.039 1658.05 164.376 1625.46 179.082C1592.87 193.789 1547.63 202.711 1499.3 203.96C1450.98 205.208 1403.36 198.685 1366.55 185.772C1329.73 172.858 1306.59 154.568 1302.03 134.772C1297.48 114.977 1311.86 95.23 1342.13 79.7121C1372.41 64.1943 1416.2 54.1233 1464.24 51.6312L1468.35 64.9961C1428.76 67.0496 1392.68 75.348 1367.73 88.1348C1342.79 100.922 1330.94 117.193 1334.69 133.505C1338.45 149.816 1357.51 164.888 1387.85 175.528C1418.19 186.169 1457.42 191.544 1497.24 190.515C1537.06 189.486 1574.34 182.135 1601.2 170.016C1628.05 157.898 1642.36 141.964 1641.11 125.588C1639.86 109.212 1623.13 93.6787 1594.48 82.2766C1565.83 70.8746 1527.5 64.4987 1487.6 64.4987V51.0277Z" fill="#4C68F5"/>
<path d="M1420.15 134.181V116.387H1413.27V114.021H1429.51V116.387H1422.64V134.181H1420.15ZM1432.02 116.387V113.811H1434.52V116.387H1432.02ZM1432.02 134.181V119.061H1434.52V134.181H1432.02ZM1456.79 134.181L1456.8 124.507C1456.8 123.378 1456.5 122.496 1455.89 121.861C1455.3 121.217 1454.52 120.895 1453.56 120.895C1453 120.895 1452.46 121.026 1451.96 121.287C1451.46 121.539 1451.05 121.941 1450.73 122.491C1450.41 123.033 1450.25 123.728 1450.25 124.577L1448.94 124.045C1448.92 122.972 1449.14 122.034 1449.59 121.231C1450.06 120.419 1450.7 119.789 1451.5 119.341C1452.3 118.893 1453.21 118.669 1454.21 118.669C1455.79 118.669 1457.03 119.15 1457.94 120.111C1458.84 121.063 1459.3 122.347 1459.3 123.961L1459.28 134.181H1456.79ZM1438.7 134.181V119.061H1440.93V123.107H1441.21V134.181H1438.7ZM1447.76 134.181L1447.77 124.605C1447.77 123.448 1447.48 122.543 1446.88 121.889C1446.28 121.227 1445.49 120.895 1444.5 120.895C1443.52 120.895 1442.72 121.231 1442.12 121.903C1441.51 122.575 1441.21 123.467 1441.21 124.577L1439.89 123.793C1439.89 122.813 1440.13 121.936 1440.59 121.161C1441.06 120.387 1441.69 119.78 1442.5 119.341C1443.3 118.893 1444.21 118.669 1445.23 118.669C1446.24 118.669 1447.13 118.884 1447.89 119.313C1448.64 119.743 1449.23 120.359 1449.64 121.161C1450.05 121.955 1450.25 122.902 1450.25 124.003L1450.24 134.181H1447.76ZM1469.36 134.601C1467.87 134.601 1466.58 134.275 1465.47 133.621C1464.36 132.959 1463.51 132.039 1462.89 130.863C1462.27 129.678 1461.97 128.297 1461.97 126.719C1461.97 125.067 1462.27 123.639 1462.88 122.435C1463.48 121.222 1464.33 120.289 1465.41 119.635C1466.5 118.973 1467.78 118.641 1469.25 118.641C1470.77 118.641 1472.06 118.991 1473.12 119.691C1474.2 120.391 1475 121.39 1475.53 122.687C1476.07 123.985 1476.31 125.529 1476.23 127.321H1473.71V126.425C1473.68 124.568 1473.31 123.182 1472.58 122.267C1471.85 121.343 1470.77 120.881 1469.33 120.881C1467.79 120.881 1466.62 121.376 1465.82 122.365C1465.01 123.355 1464.61 124.773 1464.61 126.621C1464.61 128.404 1465.01 129.785 1465.82 130.765C1466.62 131.745 1467.76 132.235 1469.25 132.235C1470.24 132.235 1471.11 132.007 1471.85 131.549C1472.59 131.092 1473.17 130.434 1473.59 129.575L1475.98 130.401C1475.39 131.736 1474.51 132.772 1473.32 133.509C1472.14 134.237 1470.82 134.601 1469.36 134.601ZM1463.77 127.321V125.319H1474.94V127.321H1463.77ZM1490.67 134.587C1488.87 134.587 1487.39 134.195 1486.23 133.411C1485.08 132.618 1484.38 131.512 1484.11 130.093L1486.66 129.687C1486.87 130.509 1487.34 131.162 1488.08 131.647C1488.81 132.123 1489.73 132.361 1490.82 132.361C1491.86 132.361 1492.67 132.147 1493.26 131.717C1493.84 131.288 1494.14 130.705 1494.14 129.967C1494.14 129.538 1494.04 129.193 1493.84 128.931C1493.65 128.661 1493.24 128.409 1492.63 128.175C1492.02 127.942 1491.1 127.662 1489.87 127.335C1488.53 126.981 1487.48 126.612 1486.72 126.229C1485.95 125.847 1485.41 125.403 1485.08 124.899C1484.75 124.395 1484.59 123.784 1484.59 123.065C1484.59 122.179 1484.83 121.404 1485.32 120.741C1485.8 120.069 1486.48 119.551 1487.35 119.187C1488.23 118.823 1489.24 118.641 1490.4 118.641C1491.55 118.641 1492.58 118.823 1493.48 119.187C1494.39 119.551 1495.11 120.069 1495.66 120.741C1496.22 121.404 1496.56 122.179 1496.66 123.065L1494.11 123.527C1493.99 122.715 1493.6 122.076 1492.93 121.609C1492.28 121.143 1491.44 120.895 1490.4 120.867C1489.42 120.83 1488.62 121.003 1488.01 121.385C1487.4 121.768 1487.1 122.286 1487.1 122.939C1487.1 123.303 1487.21 123.616 1487.43 123.877C1487.67 124.139 1488.09 124.386 1488.71 124.619C1489.33 124.853 1490.24 125.119 1491.42 125.417C1492.76 125.753 1493.81 126.122 1494.57 126.523C1495.35 126.915 1495.9 127.382 1496.22 127.923C1496.55 128.455 1496.71 129.113 1496.71 129.897C1496.71 131.353 1496.18 132.501 1495.1 133.341C1494.03 134.172 1492.55 134.587 1490.67 134.587ZM1510.57 134.181V126.607C1510.57 125.889 1510.5 125.198 1510.37 124.535C1510.25 123.873 1510.03 123.28 1509.71 122.757C1509.41 122.225 1508.99 121.805 1508.45 121.497C1507.93 121.189 1507.27 121.035 1506.47 121.035C1505.84 121.035 1505.27 121.143 1504.76 121.357C1504.25 121.563 1503.82 121.88 1503.46 122.309C1503.09 122.739 1502.81 123.28 1502.6 123.933C1502.41 124.577 1502.31 125.338 1502.31 126.215L1500.67 125.711C1500.67 124.246 1500.93 122.991 1501.45 121.945C1501.99 120.891 1502.73 120.083 1503.68 119.523C1504.64 118.954 1505.77 118.669 1507.07 118.669C1508.05 118.669 1508.88 118.823 1509.57 119.131C1510.26 119.439 1510.84 119.85 1511.3 120.363C1511.75 120.867 1512.11 121.437 1512.37 122.071C1512.64 122.697 1512.82 123.336 1512.92 123.989C1513.03 124.633 1513.09 125.245 1513.09 125.823V134.181H1510.57ZM1499.79 134.181V114.021H1502.03V125.151H1502.31V134.181H1499.79ZM1523.28 134.601C1521.8 134.601 1520.5 134.275 1519.39 133.621C1518.29 132.959 1517.43 132.039 1516.81 130.863C1516.2 129.678 1515.89 128.297 1515.89 126.719C1515.89 125.067 1516.19 123.639 1516.8 122.435C1517.4 121.222 1518.25 120.289 1519.33 119.635C1520.42 118.973 1521.7 118.641 1523.17 118.641C1524.69 118.641 1525.98 118.991 1527.05 119.691C1528.12 120.391 1528.92 121.39 1529.45 122.687C1530 123.985 1530.23 125.529 1530.15 127.321H1527.63V126.425C1527.61 124.568 1527.23 123.182 1526.5 122.267C1525.77 121.343 1524.69 120.881 1523.25 120.881C1521.71 120.881 1520.54 121.376 1519.74 122.365C1518.94 123.355 1518.53 124.773 1518.53 126.621C1518.53 128.404 1518.94 129.785 1519.74 130.765C1520.54 131.745 1521.68 132.235 1523.17 132.235C1524.17 132.235 1525.03 132.007 1525.77 131.549C1526.51 131.092 1527.09 130.434 1527.51 129.575L1529.9 130.401C1529.31 131.736 1528.43 132.772 1527.24 133.509C1526.07 134.237 1524.75 134.601 1523.28 134.601ZM1517.69 127.321V125.319H1528.87V127.321H1517.69ZM1539.82 134.601C1538.34 134.601 1537.04 134.275 1535.93 133.621C1534.83 132.959 1533.97 132.039 1533.35 130.863C1532.74 129.678 1532.43 128.297 1532.43 126.719C1532.43 125.067 1532.73 123.639 1533.34 122.435C1533.95 121.222 1534.79 120.289 1535.87 119.635C1536.97 118.973 1538.25 118.641 1539.71 118.641C1541.23 118.641 1542.52 118.991 1543.59 119.691C1544.66 120.391 1545.46 121.39 1546 122.687C1546.54 123.985 1546.77 125.529 1546.7 127.321H1544.18V126.425C1544.15 124.568 1543.77 123.182 1543.04 122.267C1542.31 121.343 1541.23 120.881 1539.79 120.881C1538.25 120.881 1537.08 121.376 1536.28 122.365C1535.48 123.355 1535.08 124.773 1535.08 126.621C1535.08 128.404 1535.48 129.785 1536.28 130.765C1537.08 131.745 1538.23 132.235 1539.71 132.235C1540.71 132.235 1541.58 132.007 1542.31 131.549C1543.05 131.092 1543.63 130.434 1544.05 129.575L1546.44 130.401C1545.86 131.736 1544.97 132.772 1543.78 133.509C1542.61 134.237 1541.29 134.601 1539.82 134.601ZM1534.24 127.321V125.319H1545.41V127.321H1534.24ZM1558.26 134.181C1557.36 134.359 1556.47 134.429 1555.6 134.391C1554.73 134.363 1553.95 134.191 1553.27 133.873C1552.59 133.547 1552.07 133.043 1551.72 132.361C1551.42 131.764 1551.26 131.162 1551.23 130.555C1551.21 129.939 1551.2 129.244 1551.2 128.469V114.861H1553.69V128.357C1553.69 128.973 1553.7 129.501 1553.71 129.939C1553.72 130.378 1553.82 130.756 1554 131.073C1554.34 131.671 1554.87 132.021 1555.6 132.123C1556.33 132.226 1557.22 132.198 1558.26 132.039V134.181ZM1548.13 121.119V119.061H1558.26V121.119H1548.13Z" fill="black"/>
<path d="M1812.9 255.138C1846.04 255.138 1877.88 242.242 1901.68 219.18C1925.47 196.118 1939.36 164.699 1940.4 131.576C1941.45 98.4529 1929.56 66.2246 1907.25 41.7135C1884.95 17.2024 1853.98 2.33258 1820.91 0.251728C1787.83 -1.82912 1755.25 9.04236 1730.05 30.5648C1704.85 52.0872 1689.01 82.5713 1685.9 115.564C1682.78 148.556 1692.62 181.468 1713.34 207.331C1734.06 233.194 1764.03 249.979 1796.91 254.132L1799.72 231.858C1772.63 228.435 1747.94 214.604 1730.86 193.293C1713.79 171.982 1705.68 144.863 1708.25 117.677C1710.82 90.4908 1723.87 65.3718 1744.63 47.6373C1765.39 29.9027 1792.25 20.9446 1819.5 22.6592C1846.75 24.3738 1872.27 36.6266 1890.65 56.8238C1909.02 77.021 1918.82 103.577 1917.96 130.871C1917.11 158.165 1905.66 184.053 1886.05 203.057C1866.44 222.06 1840.21 232.686 1812.9 232.686V255.138Z" fill="#4C68F5"/>
<path d="M1813.61 51.0277C1862.03 51.0277 1908.55 58.7653 1943.32 72.6027C1978.09 86.4401 1998.39 105.291 1999.91 125.165C2001.43 145.039 1984.06 164.376 1951.47 179.082C1918.88 193.789 1873.64 202.711 1825.31 203.96C1776.99 205.208 1729.37 198.685 1692.56 185.772C1655.74 172.858 1632.6 154.568 1628.04 134.772C1623.49 114.977 1637.87 95.23 1668.14 79.7121C1698.42 64.1943 1742.21 54.1233 1790.25 51.6312L1794.36 64.9961C1754.77 67.0496 1718.69 75.348 1693.74 88.1348C1668.8 100.922 1656.95 117.193 1660.7 133.505C1664.46 149.816 1683.52 164.888 1713.86 175.528C1744.2 186.169 1783.43 191.544 1823.25 190.515C1863.07 189.486 1900.35 182.135 1927.21 170.016C1954.06 157.898 1968.37 141.964 1967.12 125.588C1965.87 109.212 1949.14 93.6787 1920.49 82.2766C1891.84 70.8746 1853.51 64.4987 1813.61 64.4987V51.0277Z" fill="#4C68F5"/>
<path d="M1764.04 134.181V114.021H1772C1772.2 114.021 1772.43 114.031 1772.7 114.049C1772.97 114.059 1773.23 114.087 1773.49 114.133C1774.58 114.301 1775.49 114.675 1776.23 115.253C1776.98 115.832 1777.54 116.565 1777.91 117.451C1778.28 118.329 1778.47 119.304 1778.47 120.377C1778.47 121.936 1778.06 123.289 1777.25 124.437C1776.44 125.576 1775.25 126.29 1773.68 126.579L1772.73 126.733H1766.53V134.181H1764.04ZM1776.03 134.181L1772.06 125.977L1774.52 125.221L1778.89 134.181H1776.03ZM1766.53 124.367H1771.92C1772.1 124.367 1772.3 124.358 1772.52 124.339C1772.75 124.321 1772.97 124.288 1773.18 124.241C1773.82 124.092 1774.34 123.821 1774.75 123.429C1775.16 123.028 1775.46 122.561 1775.64 122.029C1775.83 121.488 1775.92 120.937 1775.92 120.377C1775.92 119.817 1775.83 119.271 1775.64 118.739C1775.46 118.198 1775.16 117.727 1774.75 117.325C1774.34 116.924 1773.82 116.653 1773.18 116.513C1772.97 116.457 1772.75 116.425 1772.52 116.415C1772.3 116.397 1772.1 116.387 1771.92 116.387H1766.53V124.367ZM1788.53 134.601C1787.04 134.601 1785.74 134.275 1784.63 133.621C1783.53 132.959 1782.67 132.039 1782.06 130.863C1781.44 129.678 1781.13 128.297 1781.13 126.719C1781.13 125.067 1781.44 123.639 1782.04 122.435C1782.65 121.222 1783.49 120.289 1784.58 119.635C1785.67 118.973 1786.95 118.641 1788.41 118.641C1789.93 118.641 1791.23 118.991 1792.29 119.691C1793.36 120.391 1794.17 121.39 1794.7 122.687C1795.24 123.985 1795.47 125.529 1795.4 127.321H1792.88V126.425C1792.85 124.568 1792.47 123.182 1791.75 122.267C1791.02 121.343 1789.93 120.881 1788.5 120.881C1786.96 120.881 1785.79 121.376 1784.98 122.365C1784.18 123.355 1783.78 124.773 1783.78 126.621C1783.78 128.404 1784.18 129.785 1784.98 130.765C1785.79 131.745 1786.93 132.235 1788.41 132.235C1789.41 132.235 1790.28 132.007 1791.02 131.549C1791.75 131.092 1792.33 130.434 1792.75 129.575L1795.15 130.401C1794.56 131.736 1793.67 132.772 1792.49 133.509C1791.31 134.237 1789.99 134.601 1788.53 134.601ZM1782.94 127.321V125.319H1794.11V127.321H1782.94ZM1805.05 134.601C1803.63 134.601 1802.44 134.251 1801.47 133.551C1800.5 132.842 1799.76 131.885 1799.25 130.681C1798.76 129.468 1798.51 128.11 1798.51 126.607C1798.51 125.086 1798.76 123.723 1799.25 122.519C1799.76 121.315 1800.5 120.368 1801.47 119.677C1802.45 118.987 1803.65 118.641 1805.06 118.641C1806.46 118.641 1807.67 118.991 1808.68 119.691C1809.69 120.382 1810.47 121.329 1811.01 122.533C1811.56 123.737 1811.83 125.095 1811.83 126.607C1811.83 128.119 1811.56 129.477 1811.01 130.681C1810.47 131.885 1809.69 132.842 1808.68 133.551C1807.67 134.251 1806.46 134.601 1805.05 134.601ZM1798.09 140.901V119.061H1800.32V130.191H1800.6V140.901H1798.09ZM1804.74 132.319C1805.74 132.319 1806.57 132.067 1807.22 131.563C1807.87 131.059 1808.36 130.378 1808.69 129.519C1809.02 128.651 1809.18 127.681 1809.18 126.607C1809.18 125.543 1809.02 124.582 1808.69 123.723C1808.37 122.865 1807.88 122.183 1807.21 121.679C1806.54 121.175 1805.7 120.923 1804.67 120.923C1803.69 120.923 1802.88 121.166 1802.24 121.651C1801.59 122.127 1801.11 122.795 1800.79 123.653C1800.48 124.503 1800.32 125.487 1800.32 126.607C1800.32 127.709 1800.47 128.693 1800.78 129.561C1801.1 130.42 1801.58 131.097 1802.24 131.591C1802.89 132.077 1803.72 132.319 1804.74 132.319ZM1821.34 134.601C1819.83 134.601 1818.54 134.261 1817.44 133.579C1816.36 132.898 1815.53 131.955 1814.94 130.751C1814.35 129.547 1814.06 128.166 1814.06 126.607C1814.06 125.021 1814.35 123.63 1814.95 122.435C1815.55 121.241 1816.39 120.312 1817.49 119.649C1818.58 118.977 1819.86 118.641 1821.34 118.641C1822.85 118.641 1824.15 118.982 1825.24 119.663C1826.33 120.335 1827.17 121.273 1827.75 122.477C1828.34 123.672 1828.63 125.049 1828.63 126.607C1828.63 128.185 1828.34 129.575 1827.75 130.779C1827.16 131.974 1826.32 132.912 1825.23 133.593C1824.14 134.265 1822.84 134.601 1821.34 134.601ZM1821.34 132.235C1822.9 132.235 1824.07 131.713 1824.84 130.667C1825.6 129.622 1825.98 128.269 1825.98 126.607C1825.98 124.899 1825.6 123.541 1824.82 122.533C1824.05 121.516 1822.88 121.007 1821.34 121.007C1820.28 121.007 1819.41 121.245 1818.73 121.721C1818.05 122.197 1817.54 122.855 1817.21 123.695C1816.87 124.535 1816.7 125.506 1816.7 126.607C1816.7 128.306 1817.09 129.669 1817.88 130.695C1818.66 131.722 1819.81 132.235 1821.34 132.235ZM1831.71 134.181V119.061H1833.94V122.715L1833.57 122.239C1833.75 121.773 1833.98 121.343 1834.26 120.951C1834.55 120.559 1834.87 120.237 1835.23 119.985C1835.62 119.668 1836.06 119.425 1836.56 119.257C1837.05 119.089 1837.55 118.991 1838.07 118.963C1838.58 118.926 1839.06 118.959 1839.51 119.061V121.399C1838.99 121.259 1838.41 121.222 1837.79 121.287C1837.16 121.353 1836.58 121.581 1836.05 121.973C1835.57 122.319 1835.19 122.739 1834.92 123.233C1834.66 123.728 1834.47 124.265 1834.37 124.843C1834.27 125.413 1834.22 125.996 1834.22 126.593V134.181H1831.71ZM1850.6 134.181C1849.7 134.359 1848.82 134.429 1847.94 134.391C1847.07 134.363 1846.3 134.191 1845.61 133.873C1844.93 133.547 1844.42 133.043 1844.06 132.361C1843.76 131.764 1843.6 131.162 1843.57 130.555C1843.55 129.939 1843.54 129.244 1843.54 128.469V114.861H1846.03V128.357C1846.03 128.973 1846.04 129.501 1846.05 129.939C1846.07 130.378 1846.17 130.756 1846.34 131.073C1846.68 131.671 1847.21 132.021 1847.94 132.123C1848.68 132.226 1849.56 132.198 1850.6 132.039V134.181ZM1840.48 121.119V119.061H1850.6V121.119H1840.48ZM1859.38 134.587C1857.58 134.587 1856.1 134.195 1854.94 133.411C1853.79 132.618 1853.09 131.512 1852.83 130.093L1855.38 129.687C1855.58 130.509 1856.05 131.162 1856.79 131.647C1857.53 132.123 1858.44 132.361 1859.53 132.361C1860.57 132.361 1861.38 132.147 1861.97 131.717C1862.56 131.288 1862.85 130.705 1862.85 129.967C1862.85 129.538 1862.75 129.193 1862.56 128.931C1862.36 128.661 1861.96 128.409 1861.34 128.175C1860.73 127.942 1859.81 127.662 1858.58 127.335C1857.25 126.981 1856.2 126.612 1855.43 126.229C1854.67 125.847 1854.12 125.403 1853.79 124.899C1853.47 124.395 1853.3 123.784 1853.3 123.065C1853.3 122.179 1853.55 121.404 1854.03 120.741C1854.52 120.069 1855.19 119.551 1856.06 119.187C1856.94 118.823 1857.96 118.641 1859.11 118.641C1860.26 118.641 1861.29 118.823 1862.19 119.187C1863.1 119.551 1863.83 120.069 1864.38 120.741C1864.94 121.404 1865.27 122.179 1865.37 123.065L1862.82 123.527C1862.7 122.715 1862.31 122.076 1861.65 121.609C1861 121.143 1860.15 120.895 1859.11 120.867C1858.13 120.83 1857.34 121.003 1856.72 121.385C1856.11 121.768 1855.81 122.286 1855.81 122.939C1855.81 123.303 1855.92 123.616 1856.15 123.877C1856.38 124.139 1856.8 124.386 1857.42 124.619C1858.05 124.853 1858.95 125.119 1860.14 125.417C1861.47 125.753 1862.52 126.122 1863.29 126.523C1864.06 126.915 1864.61 127.382 1864.94 127.923C1865.27 128.455 1865.43 129.113 1865.43 129.897C1865.43 131.353 1864.89 132.501 1863.82 133.341C1862.75 134.172 1861.27 134.587 1859.38 134.587Z" fill="black"/>
</svg>
